<?xml version="1.0" encoding="UTF-8"?>
<!DOCTYPE svg PUBLIC "-//W3C//DTD SVG 1.0//EN" "http://www.w3.org/TR/2001/REC-SVG-20010904/DTD/svg10.dtd">
<!-- Creator: CorelDRAW -->
<svg xmlns="http://www.w3.org/2000/svg" xml:space="preserve" width="210mm" height="297mm" version="1.0" style="shape-rendering:geometricPrecision; text-rendering:geometricPrecision; image-rendering:optimizeQuality; fill-rule:evenodd; clip-rule:evenodd"
viewBox="0 0 21000 29700"
 xmlns:xlink="http://www.w3.org/1999/xlink"
 xmlns:xodm="http://www.corel.com/coreldraw/odm/2003">
 <defs>
  <style type="text/css">
   <![CDATA[
    .fil0 {fill:#23785E;fill-rule:nonzero}
    .fil1 {fill:#EDCE86;fill-rule:nonzero}
    .fil2 {fill:white;fill-rule:nonzero}
   ]]>
  </style>
 </defs>
 <g id="Katman_x0020_1">
  <metadata id="CorelCorpID_0Corel-Layer"/>
  <path class="fil0" d="M2376.65 9905.17c2.05,-20.81 16.58,-39.86 37.93,-49.74 21.06,-9.53 42.75,-18.7 64.73,-27.87l0 8024.64c0,1.76 0.35,3.52 0.39,5.29 0.14,4.94 0.53,9.52 0.99,14.11 0.45,4.58 0.98,9.17 1.76,13.4 0.32,1.77 0.35,3.53 0.71,5.65 0.52,2.47 1.44,4.94 2.08,7.41 1.13,4.58 2.29,9.17 3.7,13.4 1.38,4.24 2.93,8.47 4.59,12.35 1.65,4.23 3.38,8.47 5.32,12.35 1.94,4.23 4.1,8.11 6.32,11.99 2.19,3.88 4.41,7.41 6.88,11.29 2.5,3.53 5.15,7.41 7.86,10.94 2.72,3.17 5.44,6.7 8.37,10.23 2.96,3.17 6.1,6.35 9.31,9.52 3.14,3.18 6.28,6 9.63,9.17 3.49,2.83 7.13,5.65 10.83,8.47 3.49,2.47 6.95,4.94 10.58,7.41 4.06,2.47 8.29,4.94 12.53,7.05 2.01,1.06 3.84,2.47 5.89,3.53 -29.35,0.71 -58.81,1.77 -88.09,2.47 -29.99,-0.35 -57.29,-21.52 -60.85,-51.15 -140.97,-1175.1 -212.41,-2388.66 -212.41,-3606.8 0,-1046.34 50.45,-3432.53 150.95,-4465.11zm490.72 -508.35c227.36,-176.39 422.09,-380.3 574.07,-561.27l0 7850.01c-0.78,1.41 -1.55,2.82 -2.33,4.23 -17.81,32.11 -36.62,63.86 -56.12,95.25 -2.02,3.53 -3.99,6.71 -6,9.88 -19.76,31.75 -40.32,62.8 -61.39,93.13 -2.08,3.18 -4.12,6.35 -6.2,9.18 -21.35,30.69 -43.25,61.03 -65.55,90.66 -2.01,2.47 -4.02,5.29 -6.03,8.11 -22.55,29.64 -45.48,58.92 -68.58,87.49 -1.94,2.12 -3.81,4.59 -5.72,7.06 -23.39,28.57 -46.95,56.8 -70.52,83.96 -1.73,2.12 -3.42,3.88 -5.08,6 -23.85,27.51 -47.69,53.97 -71.33,80.08 -1.41,1.41 -2.86,2.82 -4.27,4.58 -23.85,26.11 -47.48,51.16 -70.73,75.15 -1.2,1.41 -2.36,2.46 -3.56,3.88 -23.5,24.34 -46.53,47.62 -69.01,69.85 -0.56,0.7 -1.09,1.05 -1.65,1.76l0 -8018.99zm852.31 7582.25c237.1,86.08 483.83,128.41 749.12,128.41 535.87,0 1056.92,-173.92 1561.04,-342.19 509.77,-170.39 1037.17,-346.43 1585.39,-346.43 978.6,0 1787.17,531.64 2209.44,1436.86l-155.93 0c-489.3,-670.63 -1057.27,-990.95 -1779.41,-1006.82 -697.44,-14.82 -1456.97,258.93 -2240.14,565.85 -1063.62,417.34 -2037.25,381.71 -2548.71,316.8 190.5,-184.86 433.18,-449.8 619.2,-752.48zm109.82 -8456.44c203.41,61.39 414.58,91.73 639.3,91.73 535.87,0 1056.92,-173.92 1561.04,-342.2 509.77,-170.39 1037.17,-346.43 1585.39,-346.43 1058.33,0 1917.7,621.6 2304.69,1665.12l0 7647.51c-16.93,-24.69 -34.22,-49.39 -51.5,-73.38 -3.53,-4.58 -7.06,-8.81 -10.23,-13.4 -16.58,-22.58 -33.52,-45.16 -50.8,-67.03 -6.71,-8.82 -13.76,-17.64 -20.82,-26.1 -14.46,-18.35 -28.93,-35.99 -43.74,-53.63 -7.06,-8.46 -14.47,-17.28 -21.87,-25.75 -17.29,-20.46 -35.28,-40.57 -53.27,-60.32 -4.24,-4.59 -8.47,-9.53 -12.7,-14.12 -21.88,-23.63 -44.1,-46.91 -67.03,-69.85 -7.06,-7.4 -14.11,-14.46 -21.52,-21.51 -16.23,-16.23 -32.81,-32.11 -49.39,-47.63 -8.47,-8.11 -16.93,-15.87 -25.4,-23.64 -16.93,-15.87 -34.22,-31.04 -51.51,-45.86 -7.4,-6.7 -14.81,-13.4 -22.22,-19.75 -24.34,-20.46 -48.68,-40.92 -73.73,-60.68 -5.65,-4.23 -11.29,-8.82 -16.93,-13.05 -19.76,-15.53 -39.87,-30.69 -60.33,-45.86 -8.82,-6.71 -17.99,-13.06 -27.52,-19.76 -17.63,-12.7 -35.63,-25.05 -53.62,-37.39 -9.17,-6.35 -18.34,-12.7 -27.51,-18.7 -22.23,-14.82 -44.81,-29.28 -67.39,-43.39 -4.93,-2.83 -9.52,-6 -14.11,-8.82 -27.16,-16.23 -54.32,-32.46 -81.84,-47.63 -9.17,-5.29 -17.99,-9.88 -27.16,-14.81 -19.41,-10.94 -39.16,-21.52 -59.27,-31.75 -10.23,-5.3 -20.46,-10.23 -30.69,-15.53 -20.46,-10.23 -41.63,-20.1 -62.44,-29.98 -8.47,-3.88 -16.94,-8.12 -25.4,-12 -28.93,-13.05 -58.21,-25.75 -87.85,-38.1 -7.05,-2.82 -14.11,-5.29 -21.16,-8.11 -23.29,-9.53 -46.57,-18.35 -69.85,-27.16 -10.59,-3.89 -21.17,-7.41 -31.75,-11.29 -21.17,-7.41 -42.69,-14.82 -64.21,-21.88 -10.23,-3.17 -20.46,-6.7 -30.69,-9.87 -28.22,-8.82 -56.8,-17.29 -85.37,-25.4 -3.18,-0.71 -6,-1.77 -8.82,-2.47 -31.75,-8.82 -63.5,-16.58 -95.25,-24.34 -10.23,-2.12 -20.11,-4.59 -29.99,-6.71 -22.93,-5.29 -46.21,-10.23 -69.5,-14.81 -10.93,-2.12 -21.87,-4.24 -33.16,-6.35 -24.69,-4.59 -49.74,-8.82 -74.79,-12.7 -8.46,-1.42 -16.58,-2.83 -25.04,-4.24 -33.16,-4.94 -66.68,-9.52 -100.19,-13.4 -7.76,-0.71 -15.52,-1.41 -23.64,-2.12 -26.1,-2.82 -52.56,-5.29 -79.02,-7.41 -11.29,-1.06 -22.58,-1.76 -34.22,-2.47 -24.34,-1.76 -49.04,-3.17 -73.73,-4.23 -10.58,-0.35 -21.17,-1.06 -31.75,-1.41 -34.92,-1.06 -69.85,-1.77 -104.77,-1.77 -611.37,0 -1169.11,185.92 -1708.51,366.19 -496.36,165.8 -965.2,322.44 -1437.92,322.44 -31.4,0 -62.44,-1.06 -93.13,-2.47 -9.88,-0.36 -19.76,-1.06 -29.64,-1.77 -20.81,-1.41 -41.62,-2.82 -62.09,-4.58 -11.28,-1.06 -22.57,-2.47 -33.86,-3.88 -19.05,-2.12 -38.1,-4.59 -57.15,-7.41 -11.29,-1.41 -22.58,-3.18 -33.87,-4.94 -19.05,-3.18 -38.45,-7.06 -57.5,-10.94 -10.23,-1.76 -20.46,-3.88 -30.69,-5.99 -23.04,-4.94 -46.01,-10.94 -68.9,-16.94 -5.75,-1.41 -11.54,-2.82 -17.29,-4.23 -28.36,-7.76 -56.48,-16.23 -84.45,-25.75 -8.26,-2.47 -16.37,-5.65 -24.56,-8.47 -15.45,-5.29 -30.83,-10.94 -46.17,-16.93l0 -8082.5zm1396.71 9440.69c183.8,-50.09 372.54,-111.83 564.8,-187.32 715.08,-280.46 1465.44,-553.51 2089.5,-539.4 497.42,10.93 909.47,204.26 1273.88,601.48 -1304.57,67.74 -2634.19,98.08 -3928.18,125.24zm5081.77 -8372.47c387,-1043.52 1246.36,-1665.12 2304.7,-1665.12 548.21,0 1075.61,176.04 1585.38,346.43 504.12,168.28 1025.17,342.2 1561.04,342.2 224.72,0 435.68,-30.34 639.23,-91.73l0 8082.5c-14.81,5.64 -29.63,11.29 -44.8,16.22 -8.82,3.18 -17.29,6.35 -26.1,9.53 -27.87,9.17 -55.74,17.64 -83.97,25.4 -6.35,1.76 -12.34,2.82 -18.34,4.59 -22.58,5.99 -45.16,11.64 -68.09,16.58 -10.23,2.11 -20.81,4.23 -31.04,6.35 -19.05,3.52 -38.1,7.4 -57.15,10.58 -11.29,1.76 -22.58,3.53 -34.22,5.29 -18.7,2.47 -37.75,4.94 -56.8,7.06 -11.29,1.41 -22.58,2.82 -33.86,3.88 -20.47,1.76 -41.28,3.17 -62.09,4.58 -9.88,0.71 -19.76,1.41 -29.64,1.77 -30.69,1.41 -61.73,2.47 -93.13,2.47 -413.81,0 -824.44,-119.95 -1253.07,-261.06 -61.38,-20.11 -123.12,-40.57 -184.85,-61.38 -539.4,-180.27 -1097.14,-366.19 -1708.5,-366.19 -35.28,0 -69.85,0.71 -104.78,1.77 -10.58,0.35 -21.17,1.06 -31.75,1.41 -24.69,1.06 -49.39,2.47 -74.08,4.23 -11.29,0.71 -22.58,1.41 -33.87,2.47 -26.46,2.12 -52.92,4.59 -79.37,7.41 -7.77,0.71 -15.53,1.41 -23.29,2.12 -33.51,3.88 -67.03,8.46 -100.19,13.4 -8.46,1.41 -16.58,2.82 -25.04,4.24 -25.05,3.88 -50.1,8.11 -75.15,12.7 -10.93,2.11 -21.87,4.23 -32.8,6.35 -23.29,4.58 -46.57,9.52 -69.5,14.81 -9.88,2.12 -20.11,4.59 -29.99,6.71 -31.75,7.76 -63.85,15.52 -95.25,24.34 -2.82,0.7 -5.64,1.76 -8.46,2.47 -28.93,8.11 -57.51,16.58 -85.73,25.4 -10.23,3.17 -20.46,6.7 -30.69,9.87 -21.52,7.06 -43.04,14.47 -64.21,21.88 -10.58,3.88 -21.16,7.4 -31.39,11.29 -23.64,8.81 -47.28,17.99 -70.56,27.16 -7.05,2.82 -14.11,5.29 -20.81,8.11 -29.64,12.35 -58.92,25.05 -87.84,38.1 -8.47,3.88 -16.59,7.76 -25.05,11.64 -21.17,9.88 -42.34,20.11 -63.15,30.34 -10.23,5.3 -20.11,10.23 -30.34,15.53 -20.11,10.23 -39.86,20.81 -59.62,31.75 -8.82,4.93 -17.99,9.52 -26.46,14.46 -27.87,15.52 -55.38,31.75 -82.19,48.33 -4.59,2.47 -8.82,5.29 -13.41,8.11 -22.93,14.12 -45.51,28.93 -68.08,43.75 -9.18,6 -18.35,12.35 -27.52,18.34 -17.99,12.35 -35.98,25.05 -53.98,38.1 -9.17,6.35 -18.34,12.7 -27.16,19.41 -20.46,15.17 -40.92,30.33 -60.68,46.21 -5.64,4.23 -11.29,8.47 -16.58,12.7 -25.05,19.76 -49.74,40.22 -73.73,61.03 -7.41,6 -14.82,12.7 -22.22,19.05 -17.29,15.17 -34.58,30.69 -51.51,46.21 -8.47,7.77 -16.93,15.53 -25.05,23.29 -16.93,15.87 -33.86,32.1 -50.09,48.33 -7.06,7.05 -14.11,13.76 -21.17,20.81 -22.58,23.29 -45.15,46.57 -67.38,70.56 -3.88,4.23 -8.11,8.82 -11.99,13.4 -18.35,20.11 -36.34,40.22 -53.98,61.03 -7.05,8.12 -14.46,16.94 -21.52,25.4 -14.81,17.64 -29.28,35.63 -44.09,53.63 -6.71,8.82 -13.76,17.28 -20.47,26.1 -17.28,22.23 -34.22,44.45 -51.15,67.38 -3.17,4.24 -6.35,8.47 -9.88,13.05 -17.28,23.99 -34.57,48.34 -51.5,73.38l0 -7647.51zm6819.9 8141.4c-510.12,65.27 -1481.67,101.25 -2549.17,-317.5 -783.17,-306.92 -1543.76,-580.67 -2240.14,-565.85 -722.14,15.87 -1290.11,336.19 -1779.41,1006.82l-155.93 0c422.27,-905.22 1230.84,-1436.86 2209.45,-1436.86 205.66,0 408.16,24.69 608.18,64.56 333.03,66.67 658.64,175.33 977.2,281.87 504.12,168.27 1025.17,342.19 1561.04,342.19 265.29,0 511.88,-42.33 748.95,-128.41 186.26,303.04 429.33,568.33 619.83,753.18zm-341.49 -8896.7c152.05,180.97 346.78,384.88 573.97,561.27l0 8018.99c-10.23,-10.23 -20.82,-20.81 -31.4,-31.75 -0.35,-0.35 -0.7,-0.71 -1.41,-1.06 -21.87,-22.22 -44.1,-45.51 -66.67,-69.5 -4.24,-4.23 -8.82,-8.82 -13.06,-13.4 -18.69,-20.46 -37.74,-40.92 -57.15,-62.44 -8.82,-9.53 -17.64,-19.41 -26.46,-29.64 -14.81,-16.58 -29.63,-33.86 -44.8,-51.5 -13.4,-15.88 -26.81,-31.75 -40.22,-47.98 -10.23,-12.7 -20.81,-25.4 -31.04,-38.1 -17.99,-22.58 -35.98,-45.16 -53.62,-68.79 -5.65,-7.06 -11.29,-14.82 -16.58,-22.23 -19.41,-25.75 -38.46,-52.21 -57.15,-79.02 -3.88,-5.29 -7.76,-10.93 -11.29,-16.58 -19.76,-28.57 -39.16,-57.85 -57.86,-87.49 -2.47,-4.23 -4.94,-8.46 -7.76,-12.35 -19.05,-31.04 -37.39,-62.44 -55.03,-93.83 -0.71,-1.77 -1.77,-3.18 -2.47,-4.59l0 -7850.01zm860.07 9186.68c4.59,-2.11 8.82,-4.58 12.7,-7.05 3.88,-2.47 7.06,-4.94 10.58,-7.76 3.89,-2.47 7.41,-5.29 10.59,-8.12 3.53,-3.17 7.05,-5.99 10.23,-9.52 2.82,-2.82 6,-6 8.82,-9.17 3.17,-3.53 6,-7.06 8.82,-10.94 2.47,-3.17 4.94,-6.35 7.41,-9.88 2.47,-3.88 4.93,-8.11 7.4,-12.34 2.12,-3.53 3.88,-7.06 5.65,-10.59 2.12,-4.58 4.23,-9.17 6,-13.76 1.41,-3.52 2.82,-7.4 3.88,-10.93 1.76,-4.94 3.17,-9.88 4.23,-14.82 0.71,-2.12 1.41,-4.58 1.76,-6.7 0.36,-1.77 0.36,-3.18 0.71,-4.94 1.06,-4.94 1.41,-9.88 2.12,-14.82 0.35,-4.23 0.7,-8.46 0.7,-12.7 0,-2.11 0.35,-3.88 0.35,-5.99l0 -8024.64c22.23,9.17 43.75,18.34 64.92,27.87 21.16,9.88 35.98,28.93 37.74,50.09 100.54,1032.23 150.99,3418.77 150.99,4464.76 0,1218.14 -71.26,2431.7 -212.37,3606.8 -3.53,29.63 -29.99,51.15 -60.68,51.15 -29.28,-0.7 -58.91,-1.76 -88.19,-2.47 2.11,-1.06 3.88,-2.47 5.64,-3.53zm-6572.95 -184.15c364.42,-397.22 776.46,-590.55 1273.52,-601.48 624.77,-14.11 1374.78,258.94 2089.86,539.4 191.91,75.49 381,137.23 564.8,187.32 -1293.99,-27.16 -2623.61,-57.5 -3928.18,-125.24zm-9089.5 -7918.8l1.62 0.35c-1.02,10.94 -2.01,22.94 -3.03,34.58 -0.6,14.11 -1.48,28.22 -1.69,42.68 -0.15,8.12 -1.77,15.17 -3.96,21.88 -92.74,1109.83 -139.31,3346.45 -139.31,4351.51 0,25.4 0.5,50.8 0.53,76.2 -0.35,71.97 -0.53,139.7 -0.53,202.85 0,1233.66 72.39,2462.74 215.16,3653.01 27.73,231.42 224.47,401.46 458.26,392.99 809.38,-25.04 1635.65,-42.33 2435.05,-58.91 1359.6,-28.22 2764.72,-57.15 4145.49,-127 7.41,-0.7 46.57,56.09 53.98,64.21 19.05,21.16 39.51,41.62 60.67,61.03 41.98,38.45 87.49,73.37 135.82,104.07 101.96,64.2 215.2,109.01 332.32,137.58 128.06,31.75 259.64,50.45 391.58,52.21 298.45,4.59 619.83,-44.45 867.48,-222.25 20.46,-14.82 40.22,-29.99 59.27,-46.21 53.27,-44.81 101.25,-95.61 143.58,-150.64 1380.77,69.85 2785.89,98.78 4145.49,127 799.4,16.58 1625.6,33.87 2435.23,58.91 233.18,8.47 430.39,-161.57 457.9,-392.99 142.88,-1190.27 215.2,-2419.35 215.2,-3653.01 0,-63.15 0,-130.88 -0.36,-202.85 0,-25.4 0.36,-50.8 0.36,-76.2 0,-1003.3 -46.22,-3233.21 -138.64,-4345.16 -8.47,-10.59 -37.4,-341.85 -68.44,-489.66l-131.59 12.7c-23.99,-17.29 -49.39,-33.16 -76.91,-45.51 -71.26,-32.81 -146.4,-62.09 -226.13,-88.9l0 -113.95c0,-62.08 -29.63,-120.65 -80.43,-156.98 -536.22,-387.7 -905.58,-995.19 -909.46,-1001.19 -0.71,-1.41 -1.76,-2.82 -2.82,-4.23 -3.88,-6 -8.12,-11.99 -12.7,-17.64 -1.77,-2.11 -3.53,-4.23 -5.65,-6.7 -5.64,-6.35 -11.64,-12.35 -17.99,-17.99 -0.7,-0.71 -1.41,-1.41 -2.12,-2.12 -6.35,-5.29 -13.05,-10.23 -20.1,-14.82 -1.06,-0.35 -2.12,-0.7 -2.83,-1.41 -2.47,-1.41 -5.29,-2.82 -7.76,-4.23 -5.99,-3.17 -11.99,-6.35 -17.99,-8.82 -2.82,-1.41 -5.64,-2.47 -8.47,-3.53 -6.7,-2.47 -13.4,-4.58 -20.1,-6.35 -2.47,-0.7 -4.94,-1.41 -7.41,-1.76 -9.17,-2.12 -18.35,-3.53 -27.87,-3.88 -1.77,-0.35 -3.18,0 -4.59,0 -8.11,-0.35 -16.23,-0.35 -23.99,0.35 -3.17,0.35 -5.99,0.71 -8.82,1.06 -7.05,1.06 -14.11,2.47 -21.16,3.88 -2.12,0.71 -3.88,0.71 -5.65,1.06 -0.7,0.35 -1.76,0.7 -2.47,1.06 -9.17,2.47 -17.99,5.64 -26.81,9.87 -235.65,108.31 -481.89,160.87 -752.12,160.87 -472.72,0 -941.56,-156.63 -1437.92,-322.44 -539.4,-179.91 -1097.14,-366.18 -1708.5,-366.18 -1090.79,0 -1997.43,565.15 -2498.73,1533.88 -501.3,-968.73 -1407.94,-1533.88 -2498.72,-1533.88 -611.37,0 -1169.11,186.27 -1708.51,366.18 -496.36,165.81 -965.2,322.44 -1437.92,322.44 -270.23,0 -516.43,-52.56 -752.33,-160.87 -8.82,-4.23 -17.92,-7.4 -27.1,-9.87 -0.7,-0.36 -1.3,-0.71 -1.97,-0.71 -1.45,-0.35 -2.9,-0.7 -4.34,-1.06 -7.69,-1.76 -15.42,-3.17 -23.25,-4.23 -2.4,-0.35 -4.8,-0.71 -7.23,-1.06 -8.96,-0.7 -17.89,-1.06 -26.81,-0.35 -0.64,0 -1.31,0 -1.94,0 -9.81,0.35 -19.58,1.76 -29.25,3.88 -1.55,0.35 -3.03,1.06 -4.58,1.41 -7.77,1.76 -15.46,4.23 -22.97,7.06 -2.26,0.7 -4.45,1.76 -6.63,2.47 -6.99,3.17 -13.76,6.35 -20.43,10.23 -1.9,1.05 -3.88,2.11 -5.75,3.17 -1.13,0.71 -2.33,1.06 -3.46,1.76 -7.12,4.59 -13.9,9.88 -20.28,15.17 -0.07,0 -0.11,0 -0.18,0 -7.3,6.35 -13.9,13.06 -20.14,20.11 -1.76,2.12 -3.35,4.24 -5.05,6 -4.65,6 -8.99,11.99 -12.94,18.34 -0.92,1.42 -2.08,2.47 -2.97,3.88 -3.66,6 -372.92,613.49 -909.46,1001.19 -50.51,36.33 -80.43,94.9 -80.43,156.98l0 113.95c-79.66,26.81 -154.87,56.09 -226.13,88.9 -27.48,12.35 -52.74,28.22 -76.73,45.51l-136.24 -13.05c-25.61,127 -47.98,254.35 -56.2,384.17z"/>
  <path class="fil1" d="M19340.5 19178.99l-148.17 -169.68 0 -8850.49c58.92,65.97 109.72,122.76 145.7,162.28 12,656.87 6.35,6152.79 2.47,8857.89zm-9032.52 781.05l0 -289.27 8605.66 -390.18 210.25 240.24 -8815.91 439.21zm4947.35 592.67l-685.09 -199.67c-342.2,-99.84 -708.03,95.6 -815.27,435.68 -88.19,280.1 21.52,588.78 266.7,750.36l986.37 650.52 -305.51 1759.65 -3145.72 -3615.62 3698.52 -228.95 0 448.03zm-1333.5 3637.84l-3378.2 -3832.57 520.35 0 3334.1 3832.57 -476.25 0zm-4001.91 -4230.51l-8815.91 -439.21 210.18 -240.24 8605.73 390.18 0 289.27zm-3613.85 4230.51l-476.25 0 3334.1 -3832.57 520.35 0 -3378.2 3832.57zm-1086.21 -2000.95l986.37 -650.52c245.18,-161.58 354.9,-470.26 266.7,-750.36 -107.24,-340.08 -473.07,-535.52 -815.62,-435.68l-685.1 199.67 0 -448.03 3698.53 228.95 -3145.37 3615.62 -305.51 -1759.65zm-4184.22 -3180.29l-148.31 169.68c-3.99,-2705.1 -9.35,-8201.02 2.65,-8857.89 35.77,-39.52 86.64,-96.31 145.66,-162.28l0 8850.49zm18696.44 -7281.34c-0.7,-444.14 -1.76,-814.21 -3.17,-1074.2 -2.82,-488.25 -2.82,-488.25 -60.68,-545.75 -25.05,-26.46 -335.49,-373.95 -525.29,-586.67 0,-0.35 -0.35,-0.35 -0.35,-0.35 -4.23,-4.94 -9.17,-9.88 -14.11,-14.12 -1.41,-1.41 -2.82,-2.46 -4.59,-3.88 -1.76,-1.76 -3.88,-3.17 -5.64,-4.93 -6,-4.24 -11.99,-8.47 -17.99,-12.35 -1.41,-0.71 -2.47,-1.77 -3.53,-2.47 -7.41,-4.23 -15.17,-8.12 -22.93,-11.29 -2.12,-0.71 -3.88,-1.76 -6,-2.47 -6.7,-2.47 -13.4,-4.59 -20.11,-6.35 -1.76,-0.35 -3.52,-1.06 -5.29,-1.41 -8.11,-2.12 -16.58,-3.53 -25.04,-4.23 -2.12,-0.36 -3.88,-0.36 -6,-0.36 -6.7,-0.35 -13.41,-0.7 -20.11,-0.35 -2.47,0 -5.29,0 -7.76,0.35 -1.41,0 -2.82,0 -4.23,0.36l-567.27 55.38c27.16,127.35 35.63,256.12 38.1,386.29l354.19 -34.92 0 9032.87 -8496.3 385.24 -388.06 0 -8496.23 -385.24 0 -9032.87 351.9 34.57c-3.99,-129.82 7.09,-259.64 34.5,-386.29l-561.48 -55.03c-1.34,-0.36 -2.65,-0.36 -3.95,-0.36 -2.89,-0.35 -5.72,-0.35 -8.57,-0.35 -6.32,-0.35 -12.63,0 -18.91,0.35 -2.33,0 -4.7,0 -7.02,0.36 -8.22,0.7 -16.34,2.11 -24.35,3.88 -2.22,0.7 -4.37,1.41 -6.56,1.76 -6.28,1.76 -12.45,3.88 -18.52,6.35 -2.4,0.71 -4.76,1.76 -7.09,2.47 -7.62,3.53 -15.06,7.06 -22.26,11.29 -1.45,0.7 -2.82,1.76 -4.27,2.82 -5.96,3.53 -11.71,7.76 -17.28,12 -2.05,1.76 -4.1,3.17 -6.07,4.93 -1.45,1.42 -3,2.47 -4.41,3.88 -4.98,4.24 -9.7,9.18 -14.11,14.12 -0.11,0 -0.25,0 -0.35,0.35 -189.87,212.72 -500.38,560.21 -523.14,584.2 -59.97,59.97 -59.97,59.97 -62.83,548.22 -1.52,259.99 -2.54,630.06 -3.24,1074.2 -1.27,784.93 -1.49,1877.84 -0.75,3248.38 1.27,2333.63 5.08,4694.77 5.12,4718.4 0,2.83 0.53,5.65 0.67,8.47 0.25,6 0.56,12 1.41,17.99 0.57,3.88 1.45,7.76 2.26,12 1.06,5.29 2.19,10.23 3.74,15.52 1.2,4.23 2.68,8.47 4.2,12.35 1.09,3.17 1.83,6.35 3.14,9.17 0.74,1.76 1.8,3.53 2.57,5.29 1.84,3.88 3.85,7.41 5.89,11.29 2.51,4.59 5.08,9.17 7.87,13.41 2.29,3.52 4.69,6.7 7.2,10.23 3.14,4.23 6.42,8.11 9.91,12.34 2.72,2.82 5.5,6 8.4,8.82 3.77,3.88 7.65,7.41 11.71,10.59 3.1,2.82 6.21,5.29 9.52,7.76 4.38,3.17 8.93,6.35 13.55,9.17 3.39,2.12 6.63,4.23 10.16,6 5.26,2.82 10.72,5.29 16.23,7.4 2.57,1.42 4.9,2.83 7.51,3.53 0.64,0.35 1.34,0.35 2.01,0.71 9.92,3.53 20.15,6.35 30.66,8.46 2.19,0.36 4.34,0.36 6.53,0.71 6.35,1.06 12.7,2.12 19.22,2.47l3899.75 194.38 0 728.84c0,61.03 28.93,118.53 77.96,155.22 48.69,36.34 111.83,47.98 170.39,31.05l933.45 -272.35c141.47,-41.27 292.46,39.51 336.55,179.92 36.69,115.36 -8.46,243.06 -109.71,309.74l-1092.55 720.72c-64.56,42.33 -97.72,118.89 -84.32,195.09l396.88 2286.7c0.7,3.53 1.76,6.71 2.47,9.88 1.06,4.59 2.11,9.17 3.53,13.76 1.41,4.94 3.17,9.52 4.93,14.11 1.42,3.18 2.12,6.35 3.53,9.53 0.71,0.7 1.06,1.41 1.41,2.47 2.12,4.58 4.94,8.81 7.41,13.05 2.12,3.88 3.88,7.41 6.35,10.93 2.47,4.24 5.65,7.77 8.47,11.65 2.82,3.52 5.29,7.05 8.11,10.23 3.18,3.52 6.71,6.7 10.23,9.87 2.83,3.18 6,6.35 9.18,9.18 3.52,2.82 7.4,5.64 11.28,8.46 3.53,2.47 7.06,5.29 10.59,7.41 3.88,2.47 8.11,4.59 12.34,6.7 3.89,2.12 7.77,4.59 11.65,6.35 4.23,1.77 8.11,3.18 12.34,4.59 4.59,1.76 9.18,3.53 13.76,4.94 0.35,0 1.06,0.35 1.41,0.7 4.94,1.06 9.53,1.77 14.47,2.83 3.52,0.7 7.05,1.76 10.58,2.11 9.17,1.41 17.99,2.12 27.16,2.12l989.55 0c55.73,0 108.65,-23.99 145.69,-65.97l3574.7 -4055.18 3574.7 4055.18c36.69,41.98 89.96,65.97 145.69,65.97l989.55 0c9.17,0 17.99,-0.71 27.16,-2.12 3.53,-0.35 7.06,-1.41 10.58,-2.11 4.94,-1.06 9.53,-1.77 14.47,-2.83 0.35,-0.35 0.7,-0.7 1.41,-0.7 4.58,-1.41 9.17,-3.18 13.76,-4.94 3.88,-1.41 8.11,-2.82 12.34,-4.59 3.88,-1.76 7.77,-4.23 11.65,-6.35 4.23,-2.11 8.46,-4.23 12.34,-6.7 3.53,-2.12 7.06,-4.94 10.59,-7.41 3.52,-2.82 7.76,-5.64 11.29,-8.46 3.17,-2.83 6.35,-6 9.17,-9.18 3.53,-3.17 7.05,-6.35 10.23,-9.87 2.82,-3.18 5.29,-6.71 8.11,-10.23 2.82,-3.88 6,-7.41 8.47,-11.65 2.47,-3.52 4.23,-7.05 6.35,-10.93 2.47,-4.24 5.29,-8.47 7.41,-13.05 0.35,-1.06 0.7,-1.77 1.41,-2.47 1.41,-3.18 2.11,-6.35 3.17,-9.53 2.12,-4.59 3.88,-9.17 5.29,-14.11 1.42,-4.59 2.47,-9.17 3.53,-13.76 0.71,-3.17 1.77,-6.35 2.47,-9.88l396.88 -2286.7c13.4,-76.2 -19.76,-152.76 -84.32,-195.09l-1092.55 -720.72c-101.25,-66.68 -146.4,-194.38 -110.07,-309.74 44.45,-140.41 195.44,-221.19 336.55,-179.92l933.45 272.35c58.92,16.93 122.06,5.29 170.75,-31.05 49.03,-36.69 77.61,-94.19 77.61,-155.22l0 -728.84 3899.96 -194.38c6.7,-0.35 13.05,-1.41 19.4,-2.47 2.12,-0.35 4.23,-0.35 6.35,-0.71 10.58,-2.11 20.81,-4.93 30.69,-8.46 0.71,-0.36 1.41,-0.36 2.12,-0.71 2.47,-0.7 4.94,-2.11 7.41,-3.53 5.64,-2.11 10.93,-4.58 16.22,-7.4 3.53,-1.77 6.71,-3.88 10.24,-6 4.58,-2.82 9.17,-6 13.4,-9.17 3.53,-2.47 6.7,-4.94 9.53,-7.76 4.23,-3.18 8.11,-6.71 11.99,-10.59 2.82,-2.82 5.64,-6 8.11,-8.82 3.53,-4.23 7.06,-8.11 10.23,-12.34 2.47,-3.53 4.59,-6.71 7.06,-10.23 2.82,-4.24 5.29,-8.82 7.76,-13.41 2.12,-3.88 4.23,-7.41 6,-11.29 0.7,-1.76 1.76,-3.53 2.47,-5.29 1.41,-2.82 2.11,-6 3.17,-9.17 1.41,-3.88 3.18,-8.12 4.24,-12.35 1.41,-5.29 2.82,-10.23 3.88,-15.52 0.7,-4.24 1.41,-7.76 2.11,-12 0.71,-5.99 1.06,-11.99 1.41,-17.99 0,-2.82 0.71,-5.64 0.71,-8.47 0,-23.63 3.88,-2384.77 4.94,-4718.4 1.06,-1370.54 0.7,-2463.45 -0.71,-3248.38z"/>
  <path class="fil2" d="M4468.8 9711.14c521.41,0 1012.83,-164.04 1533.17,-337.61 516.47,-172.5 1050.57,-351.01 1613.26,-351.01 576.08,0 1106.66,178.51 1534.93,515.76 45.86,36.34 112.18,28.22 148.52,-17.64 36.34,-45.86 28.22,-112.53 -17.64,-148.52 -465.66,-367.24 -1041.75,-561.27 -1665.81,-561.27 -596.9,0 -1147.94,183.8 -1680.29,361.95 -503.41,167.93 -978.95,326.68 -1466.14,326.68 -58.56,0 -105.83,47.62 -105.83,105.83 0,58.56 47.27,105.83 105.83,105.83z"/>
  <path class="fil2" d="M5934.94 10376.48c-503.41,168.28 -978.95,327.03 -1466.14,327.03 -58.56,0 -105.83,47.27 -105.83,105.83 0,58.56 47.27,105.83 105.83,105.83 521.41,0 1012.83,-164.04 1533.17,-337.96 516.47,-172.51 1050.57,-351.01 1613.26,-351.01 576.08,0 1106.66,178.5 1534.93,516.11 45.86,35.99 112.18,28.22 148.52,-17.64 36.34,-45.86 28.22,-112.53 -17.64,-148.87 -465.66,-366.89 -1041.75,-561.27 -1665.81,-561.27 -596.9,0 -1147.94,184.15 -1680.29,361.95z"/>
  <path class="fil2" d="M9281.04 11779.83c-465.66,-367.24 -1041.75,-561.27 -1665.81,-561.27 -596.9,0 -1147.94,183.8 -1680.29,361.95 -503.41,167.92 -978.95,326.67 -1466.14,326.67 -58.56,0 -105.83,47.63 -105.83,105.84 0,58.56 47.27,105.83 105.83,105.83 521.41,0 1012.83,-164.04 1533.17,-337.61 516.47,-172.5 1050.57,-351.01 1613.26,-351.01 576.08,0 1106.66,178.51 1534.93,515.76 45.86,36.34 112.18,28.22 148.52,-17.64 36.34,-45.86 28.22,-112.18 -17.64,-148.52z"/>
  <path class="fil2" d="M9281.04 12983.86c-465.66,-367.24 -1041.75,-561.27 -1665.81,-561.27 -596.9,0 -1147.94,183.8 -1680.29,361.6 -503.41,168.28 -978.95,327.03 -1466.14,327.03 -58.56,0 -105.83,47.27 -105.83,105.83 0,58.56 47.27,105.83 105.83,105.83 521.41,0 1012.83,-164.04 1533.17,-337.96 516.47,-172.51 1050.57,-350.66 1613.26,-350.66 576.08,0 1106.66,178.15 1534.93,515.76 45.86,35.98 112.18,28.22 148.52,-17.64 36.34,-45.86 28.22,-112.53 -17.64,-148.52z"/>
  <path class="fil2" d="M9281.04 14187.54c-465.66,-367.24 -1041.75,-561.27 -1665.81,-561.27 -596.9,0 -1147.94,184.15 -1680.29,361.95 -503.41,167.92 -978.95,327.03 -1466.14,327.03 -58.56,0 -105.83,47.27 -105.83,105.83 0,58.21 47.27,105.83 105.83,105.83 521.41,0 1012.83,-164.04 1533.17,-337.96 516.47,-172.51 1050.57,-351.01 1613.26,-351.01 576.08,0 1106.66,178.5 1534.93,515.76 45.86,36.33 112.18,28.57 148.52,-17.29 36.34,-46.21 28.22,-112.53 -17.64,-148.87z"/>
  <path class="fil2" d="M9281.04 15391.57c-465.66,-367.24 -1041.75,-561.27 -1665.81,-561.27 -596.9,0 -1147.94,183.8 -1680.29,361.6 -503.41,168.27 -978.95,327.02 -1466.14,327.02 -58.56,0 -105.83,47.28 -105.83,105.84 0,58.56 47.27,105.83 105.83,105.83 521.41,0 1012.83,-164.04 1533.17,-337.61 516.47,-172.86 1050.57,-351.01 1613.26,-351.01 576.08,0 1106.66,178.15 1534.93,515.76 45.86,35.98 112.18,28.22 148.52,-17.64 36.34,-45.86 28.22,-112.54 -17.64,-148.52z"/>
  <path class="fil2" d="M11045.28 9538.28c427.92,-337.25 958.85,-515.76 1534.94,-515.76 562.33,0 1096.79,178.51 1613.25,351.01 520.35,173.57 1011.42,337.61 1533.17,337.61 58.57,0 105.84,-47.27 105.84,-105.83 0,-58.21 -47.27,-105.83 -105.84,-105.83 -487.18,0 -962.73,-158.75 -1466.14,-326.68 -532.69,-178.15 -1083.38,-361.95 -1680.28,-361.95 -624.06,0 -1200.15,194.03 -1666.17,561.27 -45.86,35.99 -53.62,102.66 -17.29,148.52 35.99,45.86 102.66,53.98 148.52,17.64z"/>
  <path class="fil2" d="M10914.05 10575.8c-45.86,36.34 -53.62,103.01 -17.29,148.87 35.99,45.86 102.66,53.63 148.52,17.64 427.92,-337.61 958.85,-516.11 1534.94,-516.11 562.33,0 1096.79,178.5 1613.25,351.01 520.35,173.92 1011.42,337.96 1533.17,337.96 58.57,0 105.84,-47.27 105.84,-105.83 0,-58.56 -47.27,-105.83 -105.84,-105.83 -487.18,0 -962.73,-158.75 -1466.14,-327.03 -532.69,-177.8 -1083.38,-361.95 -1680.28,-361.95 -624.06,0 -1200.15,194.38 -1666.17,561.27z"/>
  <path class="fil2" d="M15726.64 11907.18c-487.18,0 -962.73,-158.75 -1466.14,-326.67 -532.69,-178.15 -1083.38,-361.95 -1680.28,-361.95 -624.06,0 -1200.15,194.03 -1666.17,561.27 -45.86,36.34 -53.62,102.66 -17.29,148.52 35.99,45.86 102.66,53.98 148.52,17.64 427.92,-337.25 958.85,-515.76 1534.94,-515.76 562.33,0 1096.79,178.51 1613.25,351.01 520.35,173.57 1011.42,337.61 1533.17,337.61 58.57,0 105.84,-47.27 105.84,-105.83 0,-58.21 -47.27,-105.84 -105.84,-105.84z"/>
  <path class="fil2" d="M15726.64 13111.22c-487.18,0 -962.73,-158.75 -1466.14,-327.03 -532.69,-177.8 -1083.38,-361.6 -1680.28,-361.6 -624.06,0 -1200.15,194.03 -1666.17,561.27 -45.86,35.99 -53.62,102.66 -17.29,148.52 35.99,45.86 102.66,53.62 148.52,17.64 427.92,-337.61 958.85,-515.76 1534.94,-515.76 562.33,0 1096.79,178.15 1613.25,350.66 520.35,173.92 1011.42,337.96 1533.17,337.96 58.57,0 105.84,-47.27 105.84,-105.83 0,-58.56 -47.27,-105.83 -105.84,-105.83z"/>
  <path class="fil2" d="M15726.64 14315.25c-487.18,0 -962.73,-159.11 -1466.14,-327.03 -532.69,-177.8 -1083.38,-361.95 -1680.28,-361.95 -624.06,0 -1200.15,194.03 -1666.17,561.27 -45.86,36.34 -53.62,102.66 -17.29,148.87 35.99,45.86 102.66,53.62 148.52,17.29 427.92,-337.26 958.85,-515.76 1534.94,-515.76 562.33,0 1096.79,178.5 1613.25,351.01 520.35,173.92 1011.42,337.96 1533.17,337.96 58.57,0 105.84,-47.62 105.84,-105.83 0,-58.56 -47.27,-105.83 -105.84,-105.83z"/>
  <path class="fil2" d="M15726.64 15518.92c-487.18,0 -962.73,-158.75 -1466.14,-327.02 -532.69,-177.8 -1083.38,-361.6 -1680.28,-361.6 -624.06,0 -1200.15,194.03 -1666.17,561.27 -45.86,35.98 -53.62,102.66 -17.29,148.52 35.99,45.86 102.66,53.62 148.52,17.64 427.92,-337.61 958.85,-515.76 1534.94,-515.76 562.33,0 1096.79,178.15 1613.25,351.01 520.35,173.57 1011.42,337.61 1533.17,337.61 58.57,0 105.84,-47.27 105.84,-105.83 0,-58.56 -47.27,-105.84 -105.84,-105.84z"/>
  <path class="fil1" d="M10817.74 4536.28l-272.34 838.52 -881.59 0 713.31 517.88 -272.34 838.55 712.96 -518.23 713.32 518.23 -272.35 -838.55 712.97 -517.88 -881.59 0 -272.35 -838.52z"/>
  <path class="fil1" d="M9355.13 5701.47c0,-736.95 506.58,-1355.48 1190.27,-1526.93 -134.41,-30.69 -274.11,-47.38 -417.69,-47.38 -1033.64,0 -1871.49,837.71 -1871.49,1871.35 0,1033.64 837.85,1871.49 1871.49,1871.49 617.36,0 1164.87,-299.16 1506.01,-760.59 -212.02,106.18 -451.21,166.51 -704.15,166.51 -869.59,0 -1574.44,-704.85 -1574.44,-1574.45z"/>
 </g>
</svg>
